<svg xmlns="http://www.w3.org/2000/svg" viewBox="0 0 814 1000">
  <path d="M682.7 535.6c-1-96.4 78.8-142.9 82.4-144.9-45.1-65.9-115.4-75-140.5-75.9-59.8-6.1-116.7 35.1-147.1 35.1-30.5 0-77.8-34.3-128-33.4-65.4 1-126 38.1-159.5 96.7-68 118.1-17.4 292.6 48.9 388.3 32.5 47.4 71.3 100.5 121.6 98.5 49.4-2 68.2-31.9 127.8-31.9 59.6 0 75.7 31.9 128.1 31.1 52.9-.8 86.3-48.3 118.4-95.9 37.2-54.6 52.6-107.6 53.6-110.6-1.2-.5-102.5-39.3-103.7-155zM552.9 166.9c27.9-34 46.7-81.3 41.6-128.6-40.2 1.6-88.6 27.5-117.5 61.5-25.9 29.7-48.4 77.5-42.4 123.2 44.7 3.4 90.4-22.6 118.3-56.1z" fill="#000"/>
</svg>