<svg width="14" height="15" viewBox="0 0 14 15" fill="none" xmlns="http://www.w3.org/2000/svg">
<path fill-rule="evenodd" clip-rule="evenodd" d="M7.156 1.55471C7.1117 1.51933 7.05669 1.50006 7 1.50006C6.94331 1.50006 6.8883 1.51933 6.844 1.55471L1.594 5.75471C1.56459 5.77819 1.54086 5.80802 1.52458 5.84195C1.50831 5.87589 1.4999 5.91307 1.5 5.95071V12.9697C1.5 13.1077 1.612 13.2197 1.75 13.2197H4.5V7.96971C4.5 7.77079 4.57902 7.58003 4.71967 7.43938C4.86032 7.29872 5.05109 7.21971 5.25 7.21971H8.75C8.94891 7.21971 9.1397 7.29872 9.2803 7.43938C9.421 7.58003 9.5 7.77079 9.5 7.96971V13.2197H12.25C12.3163 13.2197 12.3799 13.1934 12.4268 13.1465C12.4737 13.0996 12.5 13.036 12.5 12.9697V5.94971C12.4999 5.91224 12.4915 5.87526 12.4752 5.8415C12.4589 5.80775 12.4353 5.77809 12.406 5.75471L7.156 1.55471ZM5.906 0.383706C6.21634 0.135326 6.602 0 6.9995 0C7.397 0 7.78266 0.135326 8.093 0.383706L13.343 4.58371C13.758 4.9157 14 5.41871 14 5.95071V12.9697C14 13.4338 13.8156 13.8789 13.4874 14.2071C13.1592 14.5353 12.7141 14.7197 12.25 14.7197H8.75C8.55109 14.7197 8.36032 14.6407 8.21967 14.5C8.07902 14.3594 8 14.1686 8 13.9697V8.71971H6V13.9697C6 14.1686 5.92098 14.3594 5.78033 14.5C5.63968 14.6407 5.44891 14.7197 5.25 14.7197H1.75C1.28587 14.7197 0.84075 14.5353 0.51256 14.2071C0.18437 13.8789 0 13.4338 0 12.9697V5.94971C0 5.41871 0.242 4.9157 0.657 4.58371L5.907 0.383706H5.906Z" fill="#1F2328"/>
</svg> 