<svg width="12" height="15" viewBox="0 0 12 15" fill="none" xmlns="http://www.w3.org/2000/svg">
<path fill-rule="evenodd" clip-rule="evenodd" d="M5.82322 0.176739L2.92677 3.07319C2.76928 3.23068 2.88083 3.49996 3.10355 3.49996H5.25001C5.25001 3.49997 5.25001 3.49997 5.25001 3.49997V9.24995C5.25001 9.66416 5.58579 9.99995 6 9.99995C6.41422 9.99995 6.75 9.66416 6.75 9.24995V3.49997C6.75 3.49997 6.75 3.49997 6.75 3.49996H8.8964C9.1192 3.49996 9.2307 3.23068 9.0732 3.07319L6.17677 0.176738C6.07914 0.0791077 5.92085 0.079108 5.82322 0.176739ZM1.75002 6.50002C1.61195 6.50002 1.50002 6.61194 1.50002 6.75002V13.25C1.50002 13.3881 1.61195 13.5 1.75002 13.5H10.25C10.3881 13.5 10.5 13.3881 10.5 13.25V6.75002C10.5 6.61194 10.3881 6.50002 10.25 6.50002H9.25C8.8358 6.50002 8.5 6.16423 8.5 5.75002C8.5 5.3358 8.8358 5.00002 9.25 5.00002H10.25C11.2165 5.00002 12 5.78352 12 6.75002V13.25C12 14.2165 11.2165 15 10.25 15H1.75002C0.783515 15 1.52588e-05 14.2165 1.52588e-05 13.25V6.75002C1.52588e-05 5.78352 0.783515 5.00002 1.75002 5.00002H2.75002C3.16424 5.00002 3.50002 5.3358 3.50002 5.75002C3.50002 6.16423 3.16424 6.50002 2.75002 6.50002H1.75002Z" fill="#1F2328"/>
</svg> 