<svg width="16" height="15" viewBox="0 0 16 15" fill="none" xmlns="http://www.w3.org/2000/svg">
<path fill-rule="evenodd" clip-rule="evenodd" d="M6.45662 1.04655C7.11588 -0.186902 8.88412 -0.186905 9.54338 1.04655L15.625 12.4251C16.2481 13.5908 15.4034 15 14.0816 15H1.91835C0.596554 15 -0.248093 13.5908 0.374974 12.4251L6.45662 1.04655ZM8 5.00002C8.41421 5.00002 8.75 5.3358 8.75 5.75002V8.25002C8.75 8.66423 8.41421 9.00002 8 9.00002C7.58578 9.00002 7.25 8.66423 7.25 8.25002V5.75002C7.25 5.3358 7.58578 5.00002 8 5.00002ZM9 11C9 11.5523 8.55228 12 8 12C7.44771 12 7 11.5523 7 11C7 10.4477 7.44771 10 8 10C8.55228 10 9 10.4477 9 11Z" fill="#1F2328"/>
</svg>
