<svg width="16" height="16" viewBox="0 0 16 16" fill="none" xmlns="http://www.w3.org/2000/svg">
<path d="M7.53049 1.28245C7.69065 0.844978 8.30937 0.844978 8.46953 1.28245L8.94753 2.58806C9.7063 4.66058 11.3394 6.29369 13.4119 7.05246L14.7175 7.53046C15.155 7.69062 15.155 8.30934 14.7175 8.4695L13.4119 8.9475C11.3394 9.70626 9.70629 11.3394 8.94753 13.4119L8.46953 14.7175C8.30937 15.155 7.69065 15.155 7.53049 14.7175L7.05249 13.4119C6.29372 11.3394 4.66061 9.70626 2.58809 8.9475L1.28248 8.4695C0.845008 8.30934 0.845008 7.69062 1.28248 7.53046L2.58809 7.05246C4.66061 6.29369 6.29372 4.66058 7.05249 2.58806L7.53049 1.28245Z" fill="#1F2328"/>
</svg> 