<svg width="16" height="15" viewBox="0 0 16 15" fill="none" xmlns="http://www.w3.org/2000/svg">
<path d="M7.25 1C6.55918 1 5.89872 1.13095 5.2934 1.37121C4.9084 1.52402 4.72017 1.95999 4.87298 2.34499C5.02579 2.72999 5.46177 2.91821 5.84676 2.7654C6.27721 2.59456 6.75 2.5 7.25 2.5C8.90454 2.5 10.2844 3.5347 10.7914 4.99586C10.8962 5.29766 11.1806 5.5 11.5 5.5C13.1763 5.5 14.5 6.82373 14.5 8.5C14.5 9.23895 14.2438 9.90439 13.8185 10.4197C13.5548 10.7392 13.6 11.2119 13.9194 11.4756C14.2389 11.7392 14.7116 11.694 14.9753 11.3746C15.6184 10.5954 16 9.59375 16 8.5C16 6.17026 14.2737 4.28123 12.0169 4.0287C11.1862 2.22888 9.37133 1 7.25 1Z" fill="#1F2328"/>
<path fill-rule="evenodd" clip-rule="evenodd" d="M0.71967 0.71967C1.01256 0.426777 1.48744 0.426777 1.78033 0.71967L4.09113 3.03047C4.12026 3.05549 4.14704 3.08236 4.17143 3.11077L12.7024 11.6418C12.7141 11.6528 12.7255 11.6641 12.7366 11.6759L14.7803 13.7197C15.0732 14.0126 15.0732 14.4874 14.7803 14.7803C14.4874 15.0732 14.0126 15.0732 13.7197 14.7803L11.9204 12.981C11.7819 12.9936 11.6416 13 11.5 13H3.5C1.54755 13 0 11.4525 0 9.5C0 8.08932 0.80883 6.88564 2.00109 6.32926C1.97707 5.42188 2.21089 4.50184 2.64696 3.70762L0.71967 1.78033C0.426777 1.48744 0.426777 1.01256 0.71967 0.71967ZM3.5 6.25C3.5 5.74526 3.59641 5.2672 3.77131 4.83197L10.4393 11.5H3.5C2.37598 11.5 1.5 10.624 1.5 9.5C1.5 8.55056 2.12376 7.78393 2.98391 7.56406C3.35475 7.46927 3.59469 7.11036 3.54064 6.73144L3.54045 6.7301C3.51877 6.56608 3.5 6.38107 3.5 6.25Z" fill="#1F2328"/>
</svg> 