<svg id="monty-blue-blob" width="40" height="40" viewBox="0 0 40 40" fill="none" xmlns="http://www.w3.org/2000/svg">
  <path d="M1.99009 15.3603C-0.195881 8.92559 7.68054 0.0433352 16.5397 2.32053C27.1673 5.79496 20.6482 11.4077 28.4576 13.1003C36.2671 14.793 38.073 17.6585 37.9167 22.4048C37.6385 30.8552 27.1823 29.3886 21.0798 35.9769C14.2834 43.3143 3.09987 36.1639 5.23235 29.9145C6.49486 26.2146 3.77053 20.6013 1.99009 15.3603Z" fill="#BEDBFF" fill-opacity="0.25"/>
  <path d="M5.6412 15.0209C4.30708 9.68416 11.3463 3.06718 18.41 5.51229C26.8319 9.04408 21.1267 13.1192 27.3753 15.0209C33.6238 16.9227 34.8966 19.3566 34.4388 23.1713C33.6238 29.9632 25.2018 28.0614 19.7683 32.9516C13.717 38.3977 5.0978 31.8649 7.27124 26.9747C8.558 24.0795 6.72783 19.3677 5.6412 15.0209Z" fill="#8EC5FF"/>
</svg> 