<svg width="14" height="16" viewBox="0 0 14 16" fill="none" xmlns="http://www.w3.org/2000/svg">
<path fill-rule="evenodd" clip-rule="evenodd" d="M9.56101 1.50005C9.55732 1.50019 9.55378 1.5016 9.55101 1.50405L2.28601 8.57105C2.25033 8.60584 2.22585 8.65051 2.21574 8.69931C2.20562 8.74812 2.21032 8.79883 2.22924 8.84494C2.24816 8.89106 2.28043 8.93046 2.3219 8.9581C2.36338 8.98573 2.41217 9.00034 2.46201 9.00005H5.75001C5.87306 9.00007 5.99422 9.03037 6.10279 9.08828C6.21137 9.14618 6.30403 9.22991 6.3726 9.33208C6.44117 9.43425 6.48356 9.55172 6.49601 9.67414C6.50846 9.79656 6.49061 9.92016 6.44401 10.034L4.73101 14.222L11.713 7.42905C11.7486 7.39432 11.7731 7.34974 11.7832 7.30103C11.7934 7.25232 11.7888 7.20169 11.77 7.15562C11.7512 7.10955 11.7191 7.07014 11.6777 7.04242C11.6364 7.01471 11.5878 6.99996 11.538 7.00005H8.25001C8.12455 7.00006 8.00109 6.9686 7.89093 6.90854C7.78077 6.84848 7.68745 6.76175 7.61949 6.65628C7.55153 6.55081 7.51112 6.42998 7.50195 6.30485C7.49278 6.17973 7.51515 6.0543 7.56701 5.94005L9.57501 1.52205L9.57801 1.51605C9.57745 1.51276 9.57608 1.50967 9.57401 1.50705C9.57246 1.50464 9.57042 1.5026 9.56801 1.50105L9.56001 1.50005H9.56101ZM8.50401 0.43005C8.75731 0.184165 9.08849 0.0343879 9.44041 0.00655291C9.79233 -0.021282 10.1429 0.0745705 10.4317 0.277577C10.7205 0.480584 10.9294 0.778017 11.0224 1.11857C11.1154 1.45913 11.0866 1.82145 10.941 2.14305L9.41501 5.50005H11.538C13.108 5.50005 13.884 7.40905 12.758 8.50405L5.41801 15.646C5.18481 15.8729 4.87235 15.9999 4.54701 16H4.24501C4.03994 16 3.83803 15.9496 3.65706 15.8531C3.4761 15.7566 3.32165 15.6171 3.20732 15.4469C3.093 15.2766 3.02232 15.0809 3.00152 14.8769C2.98071 14.6729 3.01041 14.4669 3.08801 14.2771L4.63301 10.5H2.46201C0.892012 10.5 0.116013 8.59105 1.24201 7.49605L8.50301 0.42905L8.50401 0.43005Z" fill="#1F2328"/>
</svg> 